HIERARCHY
ROOT root
{
	OFFSET 0.000000 0.000000 0.000000
	CHANNELS 6 Xposition Yposition Zposition Zrotation Yrotation Xrotation
	JOINT lhip
	{
		OFFSET 0.058581 -0.082280 -0.017664
		CHANNELS 3 Zrotation Yrotation Xrotation
		JOINT lknee
		{
			OFFSET 0.043451 -0.386469 0.008037
			CHANNELS 3 Zrotation Yrotation Xrotation
			JOINT lankle
			{
				OFFSET -0.014790 -0.426874 -0.037428
				CHANNELS 3 Zrotation Yrotation Xrotation
				JOINT ltoe
				{
					OFFSET 0.041054 -0.060286 0.122042
					CHANNELS 3 Zrotation Yrotation Xrotation
					End Site
					{
						OFFSET 0.000000 0.000000 0.000000
					}
				}
			}
		}
	}
	JOINT rhip
	{
		OFFSET -0.060310 -0.090513 -0.013543
		CHANNELS 3 Zrotation Yrotation Xrotation
		JOINT rknee
		{
			OFFSET -0.043257 -0.383688 -0.004843
			CHANNELS 3 Zrotation Yrotation Xrotation
			JOINT rankle
			{
				OFFSET 0.019056 -0.420046 -0.034562
				CHANNELS 3 Zrotation Yrotation Xrotation
				JOINT rtoe
				{
					OFFSET -0.034840 -0.062106 0.130323
					CHANNELS 3 Zrotation Yrotation Xrotation
					End Site
					{
						OFFSET 0.000000 0.000000 0.000000
					}
				}
			}
		}
	}
	JOINT lowerback
	{
		OFFSET 0.004439 0.124404 -0.038385
		CHANNELS 3 Zrotation Yrotation Xrotation
		JOINT upperback
		{
			OFFSET 0.004488 0.137956 0.026820
			CHANNELS 3 Zrotation Yrotation Xrotation
			JOINT chest
			{
				OFFSET -0.002265 0.056032 0.002855
				CHANNELS 3 Zrotation Yrotation Xrotation
				JOINT lowerneck
				{
					OFFSET -0.013390 0.211636 -0.033468
					CHANNELS 3 Zrotation Yrotation Xrotation
					JOINT upperneck
					{
						OFFSET 0.010113 0.088937 0.050410
						CHANNELS 3 Zrotation Yrotation Xrotation
						End Site
						{
							OFFSET 0.000000 0.000000 0.000000
						}
					}
				}
				JOINT lclavicle
				{
					OFFSET 0.071702 0.114000 -0.018898
					CHANNELS 3 Zrotation Yrotation Xrotation
					JOINT lshoulder
					{
						OFFSET 0.122921 0.045205 -0.019046
						CHANNELS 3 Zrotation Yrotation Xrotation
						JOINT lelbow
						{
							OFFSET 0.255332 -0.015649 -0.022946
							CHANNELS 3 Zrotation Yrotation Xrotation
							JOINT lwrist
							{
								OFFSET 0.265709 0.012698 -0.007375
								CHANNELS 3 Zrotation Yrotation Xrotation
								End Site
								{
									OFFSET 0.000000 0.000000 0.000000
								}
							}
						}
					}
				}
				JOINT rclavicle
				{
					OFFSET -0.082954 0.112472 -0.023707
					CHANNELS 3 Zrotation Yrotation Xrotation
					JOINT rshoulder
					{
						OFFSET -0.113228 0.046853 -0.008472
						CHANNELS 3 Zrotation Yrotation Xrotation
						JOINT relbow
						{
							OFFSET -0.260127 -0.014369 -0.031269
							CHANNELS 3 Zrotation Yrotation Xrotation
							JOINT rwrist
							{
								OFFSET -0.269108 0.006794 -0.006027
								CHANNELS 3 Zrotation Yrotation Xrotation
								End Site
								{
									OFFSET 0.000000 0.000000 0.000000
								}
							}
						}
					}
				}
			}
		}
	}
}
MOTION
Frames: 11
Frame Time: 0.033333
0.007585 -1.426117 0.986158 -178.497561 1.242879 93.639355 -0.797103 5.168492 2.693598 -1.144234 -3.643418 -5.893911 1.455799 14.741994 -9.966436 0.000000 -0.000000 0.000000 -5.787389 -5.927961 -3.148163 -0.981425 -12.724957 2.285171 3.235185 -10.574080 -4.786795 0.000000 -0.000000 0.000000 -5.360386 2.807914 -12.788121 3.600592 -2.299910 19.806035 0.864228 0.476265 -7.508943 -3.572969 13.283134 7.148488 1.562217 18.642810 -0.148145 -29.970957 -0.025105 -0.513161 -54.412133 -4.912673 15.777465 13.559426 -18.970955 -22.685544 5.713174 -15.775788 -10.016821 26.449067 4.485065 1.662081 52.080677 6.101766 12.768733 -5.928026 9.350869 -21.196823 -3.507331 14.810627 -12.951560 
0.009859 -1.425892 0.985213 -178.042814 1.115950 94.070048 -0.713237 5.604220 2.049935 -1.235821 -4.509156 -5.709666 1.347856 14.791809 -9.988519 0.000000 -0.000000 0.000000 -5.648675 -6.056646 -3.025493 -0.905739 -12.748039 1.414927 3.512439 -11.004638 -4.688932 0.000000 -0.000000 0.000000 -5.217079 2.863254 -13.577569 3.293586 -2.123272 19.175770 1.029857 0.731225 -6.363485 -3.617110 15.156671 6.200328 1.960032 21.556489 0.189909 -29.253043 -0.686758 -0.005584 -55.823354 -3.899674 15.684782 13.068986 -18.138335 -16.792713 4.496410 -12.519490 -5.891852 26.232116 4.555829 2.019597 52.001146 6.496816 11.506567 -5.924600 10.080729 -20.352335 -2.740140 14.450773 -12.700303 
0.012398 -1.424253 0.984651 -177.885832 1.014557 94.123324 -0.596537 5.639437 2.201269 -1.245797 -4.195764 -5.806702 1.190596 14.239323 -10.044627 0.000000 -0.000000 0.000000 -5.526075 -5.940938 -2.472847 -0.880186 -13.070258 0.645208 3.561025 -10.851953 -4.514829 0.000000 -0.000000 0.000000 -4.872142 3.182786 -14.142953 3.068005 -1.982278 19.977303 0.787043 0.704636 -6.829418 -3.138380 17.949599 5.897982 2.220401 23.438967 0.184222 -28.841334 -0.544152 -0.085460 -56.012318 -4.255448 13.667608 14.170750 -17.695980 -20.639055 -8.527608 -11.826856 -6.580505 26.203304 4.578462 2.888401 52.171567 7.632894 9.856722 -7.289939 9.896855 -22.089331 4.561388 13.254514 -8.749974 
0.016197 -1.423189 0.984365 -177.352312 0.952712 94.184873 -0.360328 5.507558 2.322249 -1.214047 -4.902168 -6.162503 1.106621 14.680383 -9.745873 0.000000 -0.000000 0.000000 -5.318087 -6.127010 -2.025525 -0.690748 -13.155480 0.090837 3.764760 -11.259141 -4.727394 0.000000 -0.000000 0.000000 -4.309390 3.276543 -14.043077 2.679019 -1.503809 18.572858 0.721413 0.894885 -5.578690 -3.239824 19.981946 5.574316 2.387565 25.757208 -0.223137 -28.608119 -0.991897 0.172256 -56.741116 -3.033515 15.168941 10.758807 -17.335961 -11.381846 2.384105 -13.042014 -1.397619 25.717922 4.724962 2.819145 52.310807 7.637773 9.276518 -5.784788 10.710641 -20.809123 -0.147373 15.063977 -11.183769 
0.017322 -1.422698 0.984359 -176.968968 0.773303 94.142372 -0.391211 5.450940 2.410196 -1.287871 -5.203223 -6.210179 1.110514 14.642747 -9.570363 0.000000 -0.000000 0.000000 -5.454979 -6.302685 -1.709262 -0.568599 -13.202448 -0.170838 3.804558 -11.403428 -4.801887 0.000000 -0.000000 0.000000 -4.303082 3.272904 -13.987274 2.557775 -1.542561 18.317480 0.648099 0.927141 -5.344848 -3.353140 20.119784 5.445053 2.408672 26.260459 -0.189917 -28.515298 -0.997506 0.290876 -56.977076 -2.899673 15.249913 10.644626 -17.171816 -10.649719 2.736517 -12.301670 -1.587090 25.634185 4.731802 2.925702 52.496417 7.795363 9.203467 -5.774143 10.936830 -20.951775 -0.757982 15.059528 -11.588086 
0.019534 -1.422332 0.984058 -176.289472 0.625380 94.243998 -0.314851 5.435126 2.157833 -1.352368 -5.371224 -6.009905 0.834604 14.176506 -9.583720 0.000000 -0.000000 0.000000 -5.487668 -6.363109 -1.442236 -0.407951 -13.776969 -0.509095 3.751922 -11.360560 -4.928391 0.000000 -0.000000 0.000000 -4.029749 3.289446 -14.234771 2.368833 -1.482126 18.859933 0.429764 0.925230 -5.751138 -3.196980 20.600576 5.431509 2.139044 26.386743 -0.163325 -28.491077 -0.808975 0.372111 -57.464243 -2.460911 15.471287 11.121833 -18.146463 -9.459493 1.098050 -12.724334 -0.447939 25.285271 4.821850 3.086539 52.959310 7.903112 9.219040 -5.795836 11.470270 -21.217110 -1.544284 15.247766 -12.520760 
0.021679 -1.422222 0.983896 -175.661945 0.598487 94.339205 -0.180816 5.330371 1.944166 -1.313296 -5.609439 -5.851831 0.638122 13.880239 -9.597469 0.000000 -0.000000 0.000000 -5.331394 -6.544723 -1.238557 -0.337588 -14.229757 -0.788288 3.719867 -11.373901 -5.029440 0.000000 -0.000000 0.000000 -3.793176 3.339494 -14.334388 2.192693 -1.376819 18.576059 0.411002 1.044065 -5.467301 -3.015280 20.712214 5.656151 1.921113 26.212566 -0.195629 -28.535950 -0.891101 0.611150 -58.241415 -2.470359 15.050941 11.730955 -18.239982 -10.278796 -0.346240 -12.864912 0.243852 25.053786 5.148236 3.402020 53.222567 8.032331 8.681857 -6.300565 11.667356 -21.643255 -0.135348 15.045616 -12.335210 
0.024335 -1.421699 0.984043 -175.016026 0.476464 94.282195 -0.074584 5.509056 1.931631 -1.336947 -5.696770 -5.869498 0.373718 13.438531 -9.617718 0.000000 -0.000000 0.000000 -5.252168 -6.905523 -0.785305 -0.255143 -14.535084 -1.198506 3.705435 -11.403975 -5.108393 0.000000 -0.000000 0.000000 -3.815751 3.437932 -14.128836 2.107911 -1.277665 18.326826 0.475167 0.950335 -5.359493 -2.960412 20.524947 5.666808 1.833359 25.998109 -0.162716 -28.777088 -0.635064 0.600383 -58.912072 -2.457016 14.799640 12.454443 -18.872473 -11.859345 -0.442844 -12.739943 -0.081279 25.011223 5.310620 3.632414 53.416302 8.201923 8.769346 -6.756108 11.818999 -21.949639 -0.301358 15.229162 -12.546100 
0.026669 -1.420734 0.983896 -174.585614 0.389086 94.273665 -0.044029 5.182646 2.008551 -1.202168 -5.683748 -5.930448 0.261129 13.341343 -9.615301 0.000000 -0.000000 0.000000 -5.198243 -7.057073 -0.451562 -0.172880 -14.788008 -1.495694 3.665304 -11.373498 -5.126921 0.000000 -0.000000 0.000000 -3.768492 3.604117 -14.156069 1.985830 -1.149438 18.059025 0.484725 0.962423 -5.020904 -2.878660 20.125246 5.701168 1.895001 25.799120 -0.167015 -28.874160 -0.546749 0.493898 -59.850652 -2.412874 14.817963 13.056034 -18.546462 -12.704808 0.477196 -14.049418 -1.832088 24.704117 5.407219 3.362669 53.799891 8.183969 8.795174 -6.710065 11.782024 -21.835576 -0.294987 15.681435 -12.771691 
0.029039 -1.423102 0.983902 -174.561853 0.240202 94.451952 -0.116333 4.825349 1.480565 -1.233712 -5.258180 -5.604034 0.201242 13.235169 -9.579264 0.000000 -0.000000 0.000000 -5.244735 -6.494356 -0.923723 -0.192154 -15.221234 -1.193893 3.502525 -11.390571 -5.104238 0.000000 -0.000000 0.000000 -3.545700 3.673713 -13.548296 1.770841 -0.736740 17.756116 0.331056 1.097489 -5.327234 -2.531058 20.204044 5.644673 1.576958 25.383489 -0.158804 -28.963670 -0.149049 0.242837 -60.596439 -2.221308 14.615635 14.001403 -19.254701 -14.810032 0.014834 -14.347512 -1.576798 24.717255 5.682983 3.428456 54.038364 8.458882 9.035583 -7.104816 11.505878 -22.342864 0.212726 15.865836 -12.488081 
0.031386 -1.422968 0.983977 -173.900682 0.235121 94.368076 0.067712 4.758842 1.403540 -1.176847 -5.555468 -5.430297 0.014345 12.880902 -9.627423 0.000000 -0.000000 0.000000 -5.072005 -6.754722 -0.531763 -0.123418 -15.525798 -1.520230 3.437862 -11.396610 -5.128310 0.000000 -0.000000 0.000000 -3.376903 3.682241 -13.455744 1.745384 -0.795117 18.101063 0.270832 1.021727 -5.581055 -2.564017 20.220603 5.643293 1.457374 25.235573 -0.020381 -29.124182 0.168838 0.253097 -61.219183 -2.325397 14.348239 14.760552 -19.872630 -16.514722 -0.028617 -14.258850 -2.113992 24.530469 5.711063 3.551497 54.332471 8.854483 9.174965 -7.202369 11.435835 -22.446435 0.148068 15.667664 -12.553482 
